<svg width="24" height="24" viewBox="0 0 24 24" fill="none" xmlns="http://www.w3.org/2000/svg">
<path fill-rule="evenodd" clip-rule="evenodd" d="M8.51812 2.00018C8.50537 1.99994 8.49264 1.99994 8.47996 2.00018H6.55221C5.31497 2.00018 4.20463 2.75973 3.75619 3.91284L1.96825 8.51041C1.53386 9.62741 2.01111 10.8524 3 11.4123V19.0002C3 20.657 4.34315 22.0002 6 22.0002H18C19.6569 22.0002 21 20.657 21 19.0002V11.4123C21.9889 10.8524 22.4662 9.62742 22.0318 8.51041L20.2438 3.91284C19.7954 2.75973 18.685 2.00018 17.4478 2.00018H15.5201C15.5074 1.99994 15.4947 1.99994 15.4819 2.00018H8.51812ZM19 11.7386C18.5515 11.6861 18.1119 11.5561 17.7016 11.351L17.0005 11.0004L16.9994 11.0004L16.357 11.2574C15.1649 11.7342 13.8351 11.7342 12.6431 11.2574L12 11.0002L11.357 11.2574C10.1649 11.7342 8.83511 11.7342 7.64305 11.2574L7.00058 11.0004L6.99955 11.0004L6.29844 11.351C5.88814 11.5561 5.44854 11.6861 5 11.7386V19.0002C5 19.5524 5.44772 20.0002 6 20.0002H8V17.0002C8 15.3433 9.34315 14.0002 11 14.0002H13C14.6569 14.0002 16 15.3433 16 17.0002V20.0002H18C18.5523 20.0002 19 19.5524 19 19.0002V11.7386ZM17.8944 9.21133C17.8793 9.20379 17.8642 9.19644 17.849 9.18931L16.737 4.00018H17.4478C17.8602 4.00018 18.2303 4.25337 18.3798 4.63774L20.1678 9.23531C20.2451 9.43429 20.1304 9.65603 19.9233 9.70781C19.4776 9.81922 19.0069 9.76754 18.596 9.56211L17.8944 9.21133ZM15.8303 9.31401L14.6916 4.00018H13V9.24612L13.3858 9.40045C14.1011 9.68654 14.8989 9.68654 15.6142 9.40045L15.8303 9.31401ZM11 4.00018H9.30844L8.16976 9.31402L8.38583 9.40045C9.10107 9.68654 9.89894 9.68654 10.6142 9.40045L11 9.24612V4.00018ZM6.15109 9.18929L7.26304 4.00018H6.55221C6.13979 4.00018 5.76968 4.25336 5.6202 4.63773L3.83226 9.2353C3.75488 9.43429 3.8696 9.65603 4.07673 9.70781C4.52237 9.81922 4.99315 9.76754 5.40401 9.56211L6.10558 9.21133C6.12068 9.20378 6.13585 9.19643 6.15109 9.18929ZM14 17.0002V20.0002H10V17.0002C10 16.4479 10.4477 16.0002 11 16.0002H13C13.5523 16.0002 14 16.4479 14 17.0002Z" fill="#6F767E"/>
</svg>
